<?xml version="1.0" encoding="UTF-8" standalone="no"?>
<!DOCTYPE svg PUBLIC "-//W3C//DTD SVG 20010904//EN"
              "http://www.w3.org/TR/2001/REC-SVG-20010904/DTD/svg10.dtd">

<svg xmlns="http://www.w3.org/2000/svg"
     width="0.222222in" height="0.322222in"
     viewBox="0 0 20 29">
  <path id="Imported Path"
        fill="none" stroke="black" stroke-width="1"
        d="M 6.32,4.41
           C 7.84,1.57 8.59,0.15 9.77,0.14
             10.95,0.12 11.74,1.52 13.32,4.32
             13.32,4.32 18.36,13.23 18.36,13.23
             18.40,13.30 18.42,13.33 18.44,13.38
             18.47,13.43 18.48,13.45 18.50,13.50
             18.94,14.51 21.47,20.81 18.44,25.18
             15.13,29.94 4.61,30.32 1.55,25.18
             -1.28,20.43 1.13,14.35 1.50,13.47
             1.52,13.44 1.53,13.42 1.54,13.38
             1.56,13.34 1.58,13.31 1.61,13.26
             1.61,13.26 6.32,4.41 6.32,4.41 Z" />
</svg>
