<?xml version="1.0" encoding="UTF-8" standalone="no"?>
<!DOCTYPE svg PUBLIC "-//W3C//DTD SVG 20010904//EN"
              "http://www.w3.org/TR/2001/REC-SVG-20010904/DTD/svg10.dtd">

<svg xmlns="http://www.w3.org/2000/svg"
     width="0.222222in" height="0.322222in"
     viewBox="0 0 20 29">
  <path id="innerFlame"
        fill="none" stroke="black" stroke-width="1"
        d="M 6.48,14.60
           C 7.97,12.12 8.72,10.87 9.83,10.86
             10.93,10.85 11.71,12.07 13.27,14.51
             13.27,14.51 15.22,17.58 15.22,17.58
             15.26,17.65 15.29,17.68 15.32,17.74
             15.35,17.79 15.36,17.82 15.38,17.86
             15.73,18.60 17.17,21.99 15.31,24.37
             13.21,27.05 6.55,27.26 4.61,24.37
             2.88,21.78 4.25,18.49 4.56,17.83
             4.57,17.80 4.58,17.78 4.61,17.73
             4.63,17.69 4.65,17.66 4.68,17.61
             4.68,17.61 6.48,14.60 6.48,14.60 Z" />
</svg>
