<svg width="187" height="102" viewBox="0 0 187 102" fill="none" xmlns="http://www.w3.org/2000/svg">
<rect width="187" height="102" fill="#E5E5E5"/>
<g id="Jackal">
<rect width="200" height="199.768" transform="translate(-6 -49)" fill="white"/>
<g id="jackal">
<path id="Rectangle 1" d="M13.5 28.5H17L14.2961 35.75H13.5V28.5Z" fill="#FBFFE4"/>
<path id="Rectangle 2" d="M8 27.5L11 28.5L9 34H8.5L8 27.5Z" fill="#FBFFE4"/>
<path id="Union" fill-rule="evenodd" clip-rule="evenodd" d="M81.0388 13.101C81.0359 12.9565 81.0326 12.8071 81.0292 12.6525L81.0292 12.651C81.0155 12.0253 81 11.3145 81 10.5C81 9.34714 81.0891 8.30859 81.1692 7.37536C81.6455 1.82605 81.8022 0 61 0C38.8182 0 32.5519 4.57594 31.6278 11.4647C15.4351 12.4994 4 15.3987 4 21.5C4 24.1444 6.14809 26.6235 9.90061 28.7581L52.6185 26.7903L20.829 32.9058C28.3103 34.844 37.7455 36 48 36C50.1308 36 52.1339 35.9501 54.0154 35.8536C54.0052 36.0685 54 36.2839 54 36.5C54 43.6171 59.6038 50.1027 68.7989 54.9858L64.5092 77.4296L64.6092 77.4487L64.5 77.5L69.8626 95.8395L74.499 94.3967L69.4548 78.1873L73.4668 57.197C75.679 58.1316 78.0424 58.9849 80.5369 59.7474L76 83.4844L76.0025 83.4849L76 83.4857L81.7248 101.882L86.499 100.397L81.1459 83.1946L85.3744 61.0709C93.0782 62.9447 101.784 64 111 64C125.555 64 138.836 61.368 148.909 57.0367L150.409 65.2495L141 96.8904L145.562 98.3761L155.327 65.5405L155.325 65.5396L155.327 65.5392L153.382 54.8893C155.88 53.5498 158.11 52.0912 160.03 50.5334L161.719 59.7809L152.957 89.2439L157.388 90.6866L166.5 59.5L166.485 59.4933L166.53 59.4844L164.15 46.4558C166.636 43.3687 168 40.0112 168 36.5C168 34.2604 167.445 32.0834 166.398 29.9992L169.548 31.3118L171.969 34.896L176.785 44.1357L177.177 42.9695L177.785 44.1357L177.956 43.6269L178.568 44.8016L180.12 51.865L182.236 48.6956L180.797 46.137L186 41L183.716 38.3135L186.245 38.3037L179.057 30.9894L180.357 30.0332L171.655 28.7224L163.797 26.117C155.305 16.0762 134.865 9 111 9C100.009 9 89.7443 10.5009 81.0388 13.101Z" fill="#777777"/>
<ellipse id="Ellipse 15" cx="34.5" cy="31" rx="15.5" ry="3" fill="#C05F18"/>
<path id="Subtract" fill-rule="evenodd" clip-rule="evenodd" d="M44.3166 11.0199C44.751 10.4271 45 9.73679 45 9C45 6.79086 42.7614 5 40 5C37.2386 5 35 6.79086 35 9C35 9.83011 35.3161 10.6012 35.8572 11.2403C38.5783 11.1236 41.4073 11.0519 44.3166 11.0199Z" fill="black"/>
<path id="Ellipse 16" d="M22.5 33.5C22.5 36.2614 22 41 20 43C15 45 17 37.7614 17 35C17 32.2386 18.3431 30 20 30C21.6568 30 22.5 30.7386 22.5 33.5Z" fill="#C05F18"/>
<ellipse id="Ellipse 14" cx="56" cy="11" rx="5" ry="4" fill="black"/>
<path id="Ellipse 5" d="M8 21.5C8 24.8137 8 24 4.5 26C2.567 26 0.5 25.8137 0.5 22.5C0.5 19.1863 2.567 17.5 4.5 17.5C6.433 17.5 8 18.1863 8 21.5Z" fill="#0C0C0C"/>
</g>
</g>
</svg>
