<svg width="186" height="142" viewBox="0 0 186 142" fill="none" xmlns="http://www.w3.org/2000/svg">
<path d="M163.011 83.8096C170.185 80.2419 175.324 79.3076 175.886 69.4323C177.212 38.8677 159.008 24.0539 160.341 13.2707C161.673 2.48757 168.296 2.6378 175.447 2.03846" stroke="black"/>
<rect x="64" y="103.768" width="5" height="29" fill="#C4C4C4"/>
<rect x="150" y="106.768" width="5" height="29" fill="#C4C4C4"/>
<circle cx="48" cy="41.7683" r="7" fill="#0C0C0C"/>
<ellipse cx="114" cy="87.2683" rx="57" ry="38.5" fill="#777777"/>
<ellipse cx="51" cy="58.2683" rx="44" ry="17.5" fill="#777777"/>
<circle cx="64" cy="41.7683" r="7" fill="#0C0C0C"/>
<ellipse cx="7" cy="58.7683" rx="7" ry="6" fill="#0C0C0C"/>
<path d="M14 65.7683L19 67.1016V77.7683L14 75.9905V65.7683Z" fill="#FBFFE4"/>
<path d="M11 64.7683L13.5 66.0883L14 75.7683L10 73.5683L11 64.7683Z" fill="#FBFFE4"/>
<rect x="76" y="112.768" width="5" height="29" fill="#C4C4C4"/>
<rect x="158" y="103.768" width="5" height="29" fill="#C4C4C4"/>
</svg>
