<svg width="187" height="102" viewBox="0 0 187 102" fill="none" xmlns="http://www.w3.org/2000/svg">
<path d="M174.403 36.8092L179.785 47.1358L186 41L177.5 31L171.5 32L174.403 36.8092Z" fill="#777777"/>
<ellipse cx="34.5" cy="31" rx="15.5" ry="3" fill="#C05F18"/>
<rect x="69.9534" y="48.9452" width="5" height="29" transform="rotate(10.8205 69.9534 48.9452)" fill="#777777"/>
<path d="M161.327 31L156.634 31.9387L161.836 60.423L166.53 59.4844L161.327 31Z" fill="#777777"/>
<rect x="81.4443" y="55" width="5" height="29" transform="rotate(10.8205 81.4443 55)" fill="#777777"/>
<rect width="4.78619" height="28.9556" transform="matrix(-0.98058 0.196119 0.17968 0.983725 150.124 37.0548)" fill="#777777"/>
<rect x="76" y="83.4857" width="5" height="19.2669" transform="rotate(-17.2855 76 83.4857)" fill="#777777"/>
<rect width="4.7982" height="34.2568" transform="matrix(-0.950857 -0.30963 -0.285046 0.958514 155.327 65.5405)" fill="#777777"/>
<path d="M64.5 77.5L68.6364 75.5572L74.499 94.3967L69.8626 95.8395L64.5 77.5Z" fill="#777777"/>
<path d="M166.5 59.5L162.364 57.612L152.957 89.2439L157.388 90.6866L166.5 59.5Z" fill="#777777"/>
<ellipse cx="111" cy="36.5" rx="57" ry="27.5" fill="#777777"/>
<path d="M81 10.5C81 18.5081 82.5 16.5 69 22C44.6995 22 31.5 21.5081 31.5 13.5C31.5 5.49187 36.6995 0 61 0C85.3005 0 81 2.49187 81 10.5Z" fill="#777777"/>
<path d="M13 27.25L17 28.5L14.2961 35.75H13.5L13 27.25Z" fill="#FBFFE4"/>
<path d="M7.5 24.5L10 25.7936L9 34H8.5L7.5 24.5Z" fill="#FBFFE4"/>
<ellipse cx="40" cy="9" rx="5" ry="4" fill="black"/>
<path fill-rule="evenodd" clip-rule="evenodd" d="M48 36C72.3005 36 80 29.5081 80 21.5C80 13.4919 72.3005 11 48 11C23.6995 11 4 13.4919 4 21.5C4 24.1444 6.14809 26.6235 9.90062 28.7581L52.6185 26.7903L20.829 32.9058C28.3103 34.844 37.7455 36 48 36Z" fill="#777777"/>
<path d="M22.5 33.5C22.5 36.2614 22 41 20 43C15 45 17 37.7614 17 35C17 32.2386 18.3431 30 20 30C21.6568 30 22.5 30.7386 22.5 33.5Z" fill="#C05F18"/>
<ellipse cx="56" cy="11" rx="5" ry="4" fill="black"/>
<path d="M160.501 25.0241L174 29.5L170 31.5L164 29L160.501 25.0241Z" fill="#777777"/>
<path d="M166.294 27.9149L180.357 30.0332L176.755 32.6835L166.294 27.9149Z" fill="#777777"/>
<path d="M166.236 27.9639L169 30.5L174.884 39.2117L176 31.5L166.236 27.9639Z" fill="#777777"/>
<path d="M171.403 33.8092L176.785 44.1357L177.999 40.524L171.403 33.8092Z" fill="#777777"/>
<path d="M172.403 33.8092L177.785 44.1357L178.999 40.524L172.403 33.8092Z" fill="#777777"/>
<path d="M178.087 30.0017L186.245 38.3037L182.487 38.3182L177 31.5L178.087 30.0017Z" fill="#777777"/>
<path d="M177.621 40.4914L180.12 51.865L182.236 48.6956L177.621 40.4914Z" fill="#777777"/>
<path d="M8 21.5C8 24.8137 8 24 4.5 26C2.567 26 0.5 25.8137 0.5 22.5C0.5 19.1863 2.567 17.5 4.5 17.5C6.433 17.5 8 18.1863 8 21.5Z" fill="#0C0C0C"/>
</svg>
